PathFileType	4	(X/Y/Z)	/home/mitkof6/dev/sinergia_osimrl/data/02761/02761_PRE/experimental_data/task.trc
DataRate	CameraRate	NumFrames	NumMarkers	Units	OrigDataRate	OrigDataStartFrame	OrigNumFrames
100.000000	100.000000	5	43	mm	100.000000	132	354
Frame#	Time	C7			CLAV			LANK			LASI			LBHD			LELB			LFHD			LFIN			LHEE			LKNE			LMED			LMET			LMIF			LPSI			LSHO			LTHI			LTIB			LTOE			LTTU			LWRA			LWRB			RANK			RASI			RBAK			RBHD			RELB			RFHD			RFIN			RHEE			RKNE			RMED			RMET			RMIF			RPSI			RSHO			RTHI			RTIB			RTOE			RTTU			RWRA			RWRB			STRN			T10			
		X1	Y1	Z1	X2	Y2	Z2	X3	Y3	Z3	X4	Y4	Z4	X5	Y5	Z5	X6	Y6	Z6	X7	Y7	Z7	X8	Y8	Z8	X9	Y9	Z9	X10	Y10	Z10	X11	Y11	Z11	X12	Y12	Z12	X13	Y13	Z13	X14	Y14	Z14	X15	Y15	Z15	X16	Y16	Z16	X17	Y17	Z17	X18	Y18	Z18	X19	Y19	Z19	X20	Y20	Z20	X21	Y21	Z21	X22	Y22	Z22	X23	Y23	Z23	X24	Y24	Z24	X25	Y25	Z25	X26	Y26	Z26	X27	Y27	Z27	X28	Y28	Z28	X29	Y29	Z29	X30	Y30	Z30	X31	Y31	Z31	X32	Y32	Z32	X33	Y33	Z33	X34	Y34	Z34	X35	Y35	Z35	X36	Y36	Z36	X37	Y37	Z37	X38	Y38	Z38	X39	Y39	Z39	X40	Y40	Z40	X41	Y41	Z41	X42	Y42	Z42	X43	Y43	Z43	

133	1.32	-241.1031341552734	1225.466796875	-372.1681823730466	-133.4275360107422	1149.35546875	-368.5271301269529	-377.264404296875	72.36863708496104	-417.811279296875	-196.2594299316406	827.0694580078126	-470.0929870605467	-217.9142761230469	1344.935180664062	-418.4324035644528	-205.2489776611328	943.2632446289064	-569.2828369140623	-89.03813934326172	1372.405883789062	-415.0381164550778	-74.12168884277344	697.9053344726564	-632.6033325195311	-425.8595886230469	60.65854263305673	-378.7932739257812	-283.4563903808594	441.8878173828126	-464.0459594726561	-362.8814392089844	86.12680816650398	-345.8202514648438	-292.2787170410156	27.32547378540049	-434.1890258789062	-312.1455383300781	75.13780212402352	-385.5640258789062	-322.9347229003906	883.1046752929689	-405.5595397949217	-194.6008148193359	1202.166137695312	-500.4384460449216	-283.3128356933594	576.9490966796876	-527.2036743164061	-349.6165161132812	251.8725128173829	-496.3423767089843	-263.021240234375	42.82150268554696	-398.8899230957031	-244.102783203125	363.9878234863282	-405.0377807617187	-129.2685089111328	726.2942504882814	-608.4257812499999	-81.65164947509766	750.1612548828126	-588.3468627929686	-255.4178009033203	166.3155212402344	-255.1432189941406	-192.5477294921875	826.8522338867189	-269.2781372070311	-282.9591674804688	1103.72607421875	-289.7631835937498	-240.0740966796875	1318.84130859375	-312.8456420898435	-279.7149047851562	981.9241333007812	-167.0114898681638	-98.19061279296875	1353.161865234375	-291.4059753417966	-104.7068328857422	833.539306640625	-61.59449386596661	-284.5421447753906	175.3725128173829	-312.2997131347656	-81.02890014648438	492.1525268554688	-219.7840423583983	-206.3463745117188	166.7387847900391	-313.3424072265624	-210.5823059082031	79.96616363525396	-224.6397552490234	-192.6545257568359	149.5871734619141	-263.9290466308593	-325.5263671875	882.5233154296876	-320.2972717285155	-217.3325347900391	1217.548828125	-257.1791687011716	-144.9647369384766	610.2276611328125	-170.3831939697264	-189.6989135742188	324.6479797363282	-193.3883819580077	-177.1111450195312	80.45381164550787	-246.2326965332031	-41.44820404052734	409.1335754394532	-258.6806640624999	-163.8311309814453	849.2378540039062	-77.55255126953107	-122.2245025634766	865.1472778320312	-121.4870834350584	-109.4434127807617	1011.035278320313	-367.6408691406248	-290.538818359375	978.9079589843751	-374.464904785156	
134	1.33	-232.4123077392578	1225.22705078125	-372.6424255371091	-124.8728637695312	1149.044555664062	-368.8789062499998	-376.745849609375	73.54591369628916	-417.8538208007812	-188.5602111816406	827.0032958984376	-470.7600097656248	-208.9966278076172	1344.780029296875	-418.7676086425778	-194.8605041503906	943.3472900390626	-570.489074707031	-80.09288787841797	1372.046508789062	-415.2507324218747	-62.42614364624023	698.7083740234376	-633.8800048828124	-425.5095825195312	62.4373092651368	-378.6951904296875	-279.8480224609375	442.3671875000001	-464.4017333984374	-362.1745300292969	87.28990936279304	-345.8543090820312	-292.170166015625	27.36039733886728	-434.1728515625	-311.2457580566406	75.88487243652352	-385.819580078125	-314.76708984375	883.0197753906251	-405.3403015136717	-185.7955169677734	1202.007690429688	-500.779602050781	-277.4945373535156	577.3723754882814	-527.6288452148436	-347.6006469726562	252.8278350830079	-496.5508728027343	-262.7157287597656	42.8267250061036	-398.9630432128906	-241.3675994873047	364.1370239257814	-405.3025207519531	-117.7372512817383	726.7828369140626	-609.9813232421874	-71.39631652832031	750.5334472656251	-589.2631225585936	-230.2533721923828	160.2564392089844	-258.7728271484374	-183.6812896728516	826.5977783203126	-269.9893493652342	-274.6093444824219	1103.38427734375	-290.6320190429685	-231.2949676513672	1318.660400390625	-313.2234191894528	-271.9699401855469	980.7427368164062	-169.4244842529295	-89.38370513916016	1352.743530273438	-291.632873535156	-97.87063598632812	833.6092529296875	-61.82786560058575	-259.7742004394531	168.1849822998047	-316.0997314453124	-68.57726287841797	493.5607910156251	-221.3951568603514	-181.1128387451172	162.9261016845704	-316.8963623046874	-181.8822784423828	75.54766845703131	-228.7533569335937	-166.8102111816406	146.1408081054688	-267.5950927734374	-316.9731750488281	882.1495361328126	-320.1372985839842	-209.034912109375	1217.071533203125	-257.6071166992185	-132.4884338378906	611.8743286132812	-171.1835784912108	-170.9711456298828	320.6953430175782	-196.0640716552734	-148.4075469970703	77.6158065795899	-250.195327758789	-27.0643138885498	411.5795898437501	-261.0005798339843	-157.0648345947266	848.5726928710938	-78.68702697753888	-115.0749130249023	863.2583618164062	-122.6532669067381	-101.1097030639648	1010.665954589844	-368.2534484863279	-282.2153625488281	978.7841186523439	-374.4709472656248	
135	1.34	-223.6399383544922	1224.914428710938	-373.0373535156247	-116.22802734375	1148.642822265625	-369.1917724609373	-376.2401733398438	74.73825073242197	-417.8504333496094	-180.7093048095703	826.8356933593751	-471.3024902343748	-200.0639038085938	1344.516845703125	-419.0585021972653	-184.5241546630859	943.3966064453126	-571.6127929687498	-71.14039611816406	1371.63330078125	-415.431945800781	-50.86934280395508	699.4747924804689	-635.1939086914061	-425.4588317871094	64.36563110351571	-378.5184631347656	-276.3819580078125	442.8653869628907	-464.692901611328	-361.5530395507812	88.49194335937507	-345.8454895019531	-292.04248046875	27.39522743225107	-434.1456604003906	-310.3629455566406	76.6321563720704	-386.0154418945312	-306.4671630859375	882.8841552734376	-405.1072998046873	-176.9189605712891	1201.800170898438	-501.0581970214841	-271.7707824707031	577.7780151367189	-527.9867553710936	-345.7297058105469	253.8161163330079	-496.6956787109374	-262.3614501953125	42.82447814941415	-399.0127258300781	-238.7299041748047	364.269012451172	-405.6063537597656	-106.3544921875	727.2372436523439	-611.5025024414061	-60.86665725708008	750.9500732421876	-590.2272949218749	-204.7647399902344	153.9820404052735	-262.3665161132812	-174.7325134277344	826.2678833007814	-270.6298217773436	-266.1314086914062	1103.052124023438	-291.3750305175779	-222.4797058105469	1318.3798828125	-313.5517578124997	-263.9340515136719	979.5880737304688	-171.7050781249998	-80.54880523681641	1352.286987304688	-291.8249511718747	-90.88523101806641	833.3173828125	-62.34317016601544	-234.7867431640625	160.7809448242188	-319.7980651855468	-56.62179565429688	494.5205383300782	-223.0978546142577	-155.7984008789062	159.0138244628907	-320.4956665039062	-152.79443359375	71.0794296264649	-233.0387878417968	-140.7587280273438	142.5889739990235	-271.3703613281249	-308.2955322265625	881.7355957031251	-319.9470825195311	-200.4840087890625	1216.559692382812	-257.9566345214841	-120.538444519043	613.0985717773438	-172.1383666992186	-151.8810729980469	316.1573791503907	-198.5843505859374	-119.4315185546875	74.77777862548834	-254.4087982177734	-13.26590347290039	413.6502075195313	-263.4470825195311	-150.10107421875	847.8027954101562	-79.911911010742	-107.7177047729492	861.12255859375	-123.977584838867	-92.68039703369141	1010.217834472656	-368.8012390136716	-273.8054809570312	978.5745239257814	-374.4271850585935	
136	1.35	-214.7742462158203	1224.521484375	-373.3580322265622	-107.4860153198242	1148.143432617188	-369.4695129394529	-375.7486267089844	75.94905090332041	-417.7972106933594	-172.6968078613281	826.5723266601564	-471.7319946289061	-191.1040649414062	1344.141723632812	-419.3054504394528	-174.2365417480469	943.4004516601564	-572.656066894531	-62.17206954956055	1371.166748046875	-415.5772705078122	-39.45312118530273	700.1847534179689	-636.5334472656249	-425.5759887695312	66.4141387939454	-378.2747802734375	-273.0395202636719	443.3910217285157	-464.924591064453	-360.9567260742188	89.72450256347663	-345.8059387207031	-291.8939208984375	27.42885971069346	-434.1080322265625	-309.5686950683594	77.34740447998055	-386.1397705078125	-298.0302429199219	882.6931762695314	-404.8399353027342	-167.9516906738281	1201.537963867188	-501.2791442871091	-266.1196594238281	578.1741333007814	-528.2863159179686	-344.0096435546875	254.8509216308595	-496.7723693847656	-261.9620361328125	42.82321929931649	-399.0498352050781	-236.1304626464844	364.3949279785157	-405.9863281249999	-95.11246490478516	727.6390991210939	-612.9761352539061	-50.07489395141602	751.3916625976564	-591.2384033203124	-178.9819030761719	147.5245208740235	-265.9080810546874	-165.68115234375	825.8394165039064	-271.1984863281248	-257.5159606933594	1102.70458984375	-291.9986877441404	-213.6174926757812	1317.986694335938	-313.8330078124997	-255.6200408935547	978.4623413085938	-173.8151245117185	-71.67893981933594	1351.783569335938	-291.9786987304685	-83.71986389160156	832.6194458007812	-63.12767028808575	-209.6066284179688	153.2161865234376	-323.3476562499999	-45.23323822021484	494.9804077148438	-224.9118347167968	-130.4479675292969	155.0360260009766	-324.0986022949218	-123.3769912719727	66.60166168212896	-237.4944915771484	-114.5450897216797	138.9739990234376	-275.2192077636718	-299.4797058105469	881.2783813476564	-319.7006530761717	-191.6982421875	1216.003173828125	-258.2345886230466	-109.1803207397461	613.79833984375	-173.2614593505858	-132.5009307861328	311.1596374511719	-200.9587860107421	-90.24906158447266	71.98355865478521	-258.8713073730469	0.006259650457650423	415.3409118652344	-265.9549865722655	-142.9171752929688	846.9217529296875	-81.20076751708966	-100.1273193359375	858.774169921875	-125.427421569824	-84.143798828125	1009.684387207031	-369.2939758300779	-265.3049926757812	978.2748413085939	-374.3251647949216	
137	1.36	-205.8044586181641	1224.040405273438	-373.6090087890622	-98.64289855957031	1147.539306640625	-369.7156982421873	-375.2661743164062	77.18585205078135	-417.6972045898438	-164.5200958251953	826.2210083007814	-472.0633239746092	-182.1053619384766	1343.650756835938	-419.5079956054685	-163.9904174804688	943.3472900390626	-573.6232299804685	-53.17852401733398	1370.645263671875	-415.6828918457028	-28.17624855041504	700.8164672851564	-637.8859252929686	-425.6985778808594	68.54258728027352	-377.9861145019531	-269.7720031738281	443.948699951172	-465.1022644042968	-360.3241577148438	90.97758483886726	-345.7507019042969	-291.7286376953125	27.46413040161142	-434.0594482421875	-308.9195251464844	78.0021514892579	-386.1911926269531	-289.4537048339844	882.4346923828126	-404.5177612304686	-158.8752746582031	1201.213989257812	-501.4477539062497	-260.5083312988281	578.5642089843751	-528.5317382812499	-342.4224548339844	255.9444580078126	-496.7818908691406	-261.5346984863281	42.83589935302743	-399.0885925292969	-233.5140228271484	364.5172119140626	-406.4482727050781	-83.99897003173828	727.9674682617189	-614.3917236328124	-39.02875518798828	751.8356323242189	-592.2935180664061	-152.9609680175781	140.9187774658204	-269.3854980468749	-156.5045928955078	825.2904663085939	-271.6940002441405	-248.7514953613281	1102.314331054688	-292.5062866210935	-204.6984710693359	1317.469848632812	-314.0682067871091	-247.0484771728516	977.364501953125	-175.719284057617	-62.76735687255859	1351.223022460938	-292.091125488281	-76.35025787353516	831.47900390625	-64.16223907470685	-184.2680511474609	145.5525512695313	-326.7173767089843	-34.47455596923828	494.8896789550782	-226.8602905273436	-105.1078567504883	151.0278778076173	-327.6690673828124	-93.71360015869141	62.14868545532232	-242.1116638183594	-88.23439788818359	135.335678100586	-279.0976257324218	-290.5172424316406	880.7622680664064	-319.3753967285155	-182.6969299316406	1215.393310546875	-258.4477844238278	-98.46950531005859	613.8652954101562	-174.5573120117186	-112.9580535888672	305.8328552246094	-203.2154083251953	-60.94779205322266	69.27416229248053	-263.5597839355469	12.82652378082275	416.6463623046876	-268.4705810546874	-135.4948425292969	845.9147338867188	-82.53326416015607	-92.30810546875	856.2467041015625	-126.9764862060545	-75.49249267578125	1009.059204101563	-369.7423095703123	-256.7121887207031	977.8806762695314	-374.1594238281248	
